<svg id="Layer_1" data-name="Layer 1" xmlns="http://www.w3.org/2000/svg" viewBox="0 0 63.3 20.94"><defs><style>.cls-1{fill:#dfeaef;}.cls-2{fill:#b4d0d5;}.cls-3{fill:#dd636e;}.cls-4{fill:#fff;}</style></defs><path class="cls-1" d="M61.49,17a3.49,3.49,0,0,0-.06-.65.33.33,0,0,1,.12-.29l.58-.42a.28.28,0,0,0,.08-.38l-.84-1.46a.29.29,0,0,0-.37-.12l-.66.29a.27.27,0,0,1-.3,0,4.1,4.1,0,0,0-1.13-.65.3.3,0,0,1-.19-.24l-.07-.72a.29.29,0,0,0-.29-.26H56.67a.29.29,0,0,0-.29.26l-.07.72a.3.3,0,0,1-.19.24,4.1,4.1,0,0,0-1.13.65.27.27,0,0,1-.3,0L54,13.68a.29.29,0,0,0-.37.12l-.84,1.46a.28.28,0,0,0,.08.38l.58.42a.33.33,0,0,1,.12.29,3.55,3.55,0,0,0,0,1.3.3.3,0,0,1-.12.28l-.58.43a.28.28,0,0,0-.08.38l.84,1.46a.29.29,0,0,0,.37.12l.66-.29a.27.27,0,0,1,.3,0,4.37,4.37,0,0,0,1.13.65.3.3,0,0,1,.19.24l.07.72a.29.29,0,0,0,.29.26h1.69a.29.29,0,0,0,.29-.26l.07-.72a.3.3,0,0,1,.19-.24A4.37,4.37,0,0,0,60,20.07a.27.27,0,0,1,.3,0l.66.29a.29.29,0,0,0,.37-.12l.84-1.46a.28.28,0,0,0-.08-.38l-.58-.43a.3.3,0,0,1-.12-.28A3.49,3.49,0,0,0,61.49,17Z" transform="translate(-4.55 -5.06)"/><path class="cls-2" d="M57.18,12.06a.29.29,0,0,0-.29.26l-.08.72a.28.28,0,0,1-.18.24,1.62,1.62,0,0,1-.56,0l0,0a.3.3,0,0,0,.19-.24l.07-.72a.29.29,0,0,1,.29-.26Z" transform="translate(-4.55 -5.06)"/><path class="cls-2" d="M54.17,20.2l-.85-1.46a.29.29,0,0,1,.08-.38l.59-.43a.27.27,0,0,0,.11-.28,4.25,4.25,0,0,1,0-1.3.3.3,0,0,0-.11-.29l-.59-.42a.3.3,0,0,1-.08-.38l.85-1.46,0-.05L54,13.68a.29.29,0,0,0-.37.12l-.84,1.46a.28.28,0,0,0,.08.38l.58.42a.33.33,0,0,1,.12.29,3.55,3.55,0,0,0,0,1.3.3.3,0,0,1-.12.28l-.58.43a.28.28,0,0,0-.08.38l.84,1.46a.29.29,0,0,0,.37.12l.17-.08,0,0Z" transform="translate(-4.55 -5.06)"/><path class="cls-2" d="M57.18,21.94h-.51a.29.29,0,0,1-.29-.26L56.31,21a.3.3,0,0,0-.19-.24h0a1.15,1.15,0,0,1,.53,0,.28.28,0,0,1,.18.24l.08.72a.29.29,0,0,0,.29.26Z" transform="translate(-4.55 -5.06)"/><path class="cls-3" d="M60,16a1.38,1.38,0,0,0-1.94,0l-.54.55L57,16A1.38,1.38,0,0,0,55,16a1.35,1.35,0,0,0-.4,1,1.37,1.37,0,0,0,.4,1A1.38,1.38,0,0,0,57,18l.55-.55.54.55A1.38,1.38,0,0,0,60,18,1.38,1.38,0,0,0,60,16Zm-3.45,1.52a.78.78,0,0,1-1.1,0,.8.8,0,0,1,0-1.1.79.79,0,0,1,.55-.22.77.77,0,0,1,.55.22l.54.55Zm3,0a.78.78,0,0,1-1.1,0L57.94,17l.54-.55a.78.78,0,0,1,1.1,0,.8.8,0,0,1,0,1.1Z" transform="translate(-4.55 -5.06)"/><path d="M58.05,22.09H56.37a.44.44,0,0,1-.44-.4L55.86,21a.14.14,0,0,0-.09-.12,4.22,4.22,0,0,1-1.18-.68.14.14,0,0,0-.14,0l-.66.29a.42.42,0,0,1-.56-.18l-.85-1.46a.43.43,0,0,1,.13-.57l.58-.43a.14.14,0,0,0,.06-.13,3.91,3.91,0,0,1-.06-.68,3.82,3.82,0,0,1,.06-.68.16.16,0,0,0-.06-.14l-.58-.42a.44.44,0,0,1-.13-.58l.85-1.46a.44.44,0,0,1,.56-.18l.66.3a.14.14,0,0,0,.14,0,4.1,4.1,0,0,1,.5-.35.14.14,0,0,1,.2,0,.15.15,0,0,1,0,.2,4.84,4.84,0,0,0-.46.33.45.45,0,0,1-.46.06l-.65-.3a.17.17,0,0,0-.19.06l-.84,1.46a.15.15,0,0,0,0,.19l.58.42a.44.44,0,0,1,.18.43,4,4,0,0,0,0,1.26.41.41,0,0,1-.18.42l-.58.43a.14.14,0,0,0,0,.18l.84,1.46a.15.15,0,0,0,.19.06l.65-.29a.43.43,0,0,1,.46.06,4,4,0,0,0,1.09.63.42.42,0,0,1,.28.37l.08.71a.15.15,0,0,0,.14.13h1.68a.15.15,0,0,0,.15-.13l.07-.71a.45.45,0,0,1,.28-.37A3.7,3.7,0,0,0,59.64,20a.43.43,0,0,1,.46-.06l.66.29a.13.13,0,0,0,.18-.06l.84-1.46a.13.13,0,0,0,0-.18l-.58-.43a.43.43,0,0,1-.18-.42,3.34,3.34,0,0,0,0-1.26.46.46,0,0,1,.18-.43l.58-.42a.14.14,0,0,0,0-.19l-.84-1.46a.16.16,0,0,0-.18-.06l-.66.3a.45.45,0,0,1-.46-.06,3.7,3.7,0,0,0-1.09-.63.45.45,0,0,1-.28-.37l-.07-.71a.14.14,0,0,0-.15-.13H56.37a.14.14,0,0,0-.14.13l-.08.71a.42.42,0,0,1-.28.37l-.12.05a.15.15,0,0,1-.19-.08.14.14,0,0,1,.08-.2l.13,0a.16.16,0,0,0,.09-.12l.07-.71a.44.44,0,0,1,.44-.4h1.68a.44.44,0,0,1,.44.4l.08.71a.14.14,0,0,0,.09.12,4.16,4.16,0,0,1,1.17.68.16.16,0,0,0,.15,0l.66-.3a.45.45,0,0,1,.56.18L62,15.18a.45.45,0,0,1-.12.58l-.58.42a.14.14,0,0,0-.06.14,3.82,3.82,0,0,1,0,.68,3.89,3.89,0,0,1,0,.68.12.12,0,0,0,.06.13l.58.43a.44.44,0,0,1,.12.57l-.84,1.46a.43.43,0,0,1-.56.18L60,20.16a.16.16,0,0,0-.15,0,4.16,4.16,0,0,1-1.17.68.13.13,0,0,0-.09.12l-.08.71a.44.44,0,0,1-.44.4Z" transform="translate(-4.55 -5.06)"/><path d="M59,18.52a1.62,1.62,0,0,1-.44-.07.15.15,0,0,1-.1-.19.14.14,0,0,1,.18-.09,1.49,1.49,0,0,0,.36,0,1.22,1.22,0,1,0-.86-2.08l-.55.54a.15.15,0,0,1-.21,0l-.55-.54a1.22,1.22,0,0,0-2.08.86,1.22,1.22,0,0,0,.36.86,1.21,1.21,0,0,0,1.72,0l.55-.55a.17.17,0,0,1,.21,0l.55.55,0,.05a.16.16,0,0,1,0,.21.15.15,0,0,1-.21,0,.23.23,0,0,1-.07-.07l-.44-.44-.45.44a1.5,1.5,0,0,1-2.14,0A1.49,1.49,0,0,1,54.48,17a1.47,1.47,0,0,1,.45-1.07,1.5,1.5,0,0,1,2.14,0l.45.44.44-.44a1.51,1.51,0,0,1,2.14,2.14,1.47,1.47,0,0,1-1.07.45Zm-3-.6a.91.91,0,0,1-.65-.27.89.89,0,0,1-.27-.65.92.92,0,0,1,1.57-.65l.55.54a.14.14,0,0,1,0,.21l-.55.55a.91.91,0,0,1-.65.27Zm0-1.54a.62.62,0,1,0,.44,1.06l.44-.44-.44-.44a.6.6,0,0,0-.44-.18Zm3,1.54a.91.91,0,0,1-.65-.27l-.55-.55a.14.14,0,0,1,0-.21l.55-.54a.92.92,0,0,1,1.3,0A.88.88,0,0,1,60,17a.89.89,0,0,1-.27.65.91.91,0,0,1-.65.27ZM58.15,17l.44.44a.63.63,0,0,0,.88,0,.63.63,0,0,0,0-.88.61.61,0,0,0-.88,0Zm1.43.55Z" transform="translate(-4.55 -5.06)"/><path d="M59.21,15.33a.21.21,0,0,1-.11,0,2.31,2.31,0,0,0-3.17,0,.17.17,0,0,1-.22,0,.15.15,0,0,1,0-.21,2.62,2.62,0,0,1,3.59,0,.15.15,0,0,1,0,.21A.16.16,0,0,1,59.21,15.33Z" transform="translate(-4.55 -5.06)"/><path d="M57.52,19.63a2.66,2.66,0,0,1-1.8-.7.15.15,0,0,1,0-.21.17.17,0,0,1,.22,0,2.31,2.31,0,0,0,3.17,0,.17.17,0,0,1,.22,0,.15.15,0,0,1,0,.21A2.65,2.65,0,0,1,57.52,19.63Z" transform="translate(-4.55 -5.06)"/><path class="cls-4" d="M9.53,8.17a2.93,2.93,0,0,0-.44.33,3.5,3.5,0,0,0-.39.4.86.86,0,0,0-.15.2v1.41l.08.16,6.74,1.83A2.76,2.76,0,0,1,17,13.67a3.35,3.35,0,0,1,.58,1.91v1.56a3,3,0,0,1-.47,1.65,8.84,8.84,0,0,1-.91,1.05,6,6,0,0,1-1,.89,3.65,3.65,0,0,1-1.75.5H9.35c-1.28,0-2.45-.75-3.51-2.26a6.41,6.41,0,0,1-.9-1.69l3-.93a5,5,0,0,0,1.38,1.77h4a2.37,2.37,0,0,0,.43-.31,2.72,2.72,0,0,0,.38-.39.68.68,0,0,0,.15-.2V15.66l-.08-.16L11,14.62l-3.49-.93a2.72,2.72,0,0,1-1.63-1.17,3.42,3.42,0,0,1-.57-1.91V9.15a3,3,0,0,1,.43-1.67,8.25,8.25,0,0,1,.91-1,6.84,6.84,0,0,1,1.08-.9,3.49,3.49,0,0,1,1.72-.51h3.77c1.24,0,2.4.75,3.48,2.23A8.29,8.29,0,0,1,17.6,9l-3,.85a4,4,0,0,0-1.41-1.67Z" transform="translate(-4.55 -5.06)"/><path class="cls-4" d="M30.69,21.1H20.39V5.17h3.24V18h7.06Z" transform="translate(-4.55 -5.06)"/><path class="cls-4" d="M45.1,17.14a2.86,2.86,0,0,1-.45,1.65,8.3,8.3,0,0,1-1.94,1.94,3.45,3.45,0,0,1-1.75.5h-4a3.45,3.45,0,0,1-1.75-.5,6.07,6.07,0,0,1-1-.89,13.56,13.56,0,0,1-.92-1.05,2.86,2.86,0,0,1-.45-1.65v-8a2.91,2.91,0,0,1,.45-1.67,9.73,9.73,0,0,1,.92-1,5.91,5.91,0,0,1,1-.88,3.37,3.37,0,0,1,1.75-.51h4a3.37,3.37,0,0,1,1.75.51,8.1,8.1,0,0,1,1.94,1.91,2.91,2.91,0,0,1,.45,1.67Zm-3.24,0v-8a2.79,2.79,0,0,0-1-1H37a4.09,4.09,0,0,0-1,1v8a3.71,3.71,0,0,0,1,1h3.9A4.78,4.78,0,0,0,41.86,17.14Z" transform="translate(-4.55 -5.06)"/><path class="cls-4" d="M52.6,6.49l-1,.28a1.43,1.43,0,0,0-.47-.56H50a1.49,1.49,0,0,0-.35.36V9.21a.25.25,0,0,1,0,.06,1.56,1.56,0,0,0,.13.13.59.59,0,0,0,.18.13h1.12A1.42,1.42,0,0,0,51.6,9l1,.25a2.23,2.23,0,0,1-.3.57,1.46,1.46,0,0,1-1.17.75H50a1.14,1.14,0,0,1-.58-.17,1.81,1.81,0,0,1-.34-.29,3.92,3.92,0,0,1-.31-.35,1,1,0,0,1-.15-.55V6.53A1,1,0,0,1,48.75,6c.07-.08.17-.2.31-.34a1.55,1.55,0,0,1,.35-.29A1.2,1.2,0,0,1,50,5.18h1.16a1.5,1.5,0,0,1,1.16.74A2.57,2.57,0,0,1,52.6,6.49Z" transform="translate(-4.55 -5.06)"/><path class="cls-4" d="M57.48,9.21a1,1,0,0,1-.16.54,2.76,2.76,0,0,1-.31.36,1.82,1.82,0,0,1-.33.29,1.14,1.14,0,0,1-.58.17H54.89a1.14,1.14,0,0,1-.58-.17,1.6,1.6,0,0,1-.34-.3,3.72,3.72,0,0,1-.31-.35.93.93,0,0,1-.15-.54V6.54A1,1,0,0,1,53.66,6c.07-.08.17-.2.31-.34a1.81,1.81,0,0,1,.34-.29,1.14,1.14,0,0,1,.58-.17H56.1a1.14,1.14,0,0,1,.58.17,3,3,0,0,1,.64.63,1,1,0,0,1,.16.56Zm-1.09,0V6.54a.9.9,0,0,0-.31-.33H54.92a1.52,1.52,0,0,0-.33.34V9.2a1.19,1.19,0,0,0,.32.32h1.16A1.21,1.21,0,0,0,56.39,9.2Z" transform="translate(-4.55 -5.06)"/><path class="cls-4" d="M62.42,10.52H61.33L59.62,7.4v3.12H58.54V5.21h1.11l1.69,3.17V5.21h1.08Z" transform="translate(-4.55 -5.06)"/><path class="cls-4" d="M66.92,6.25H64.6v1.1h2.19v1H64.6v2.14H63.52V5.21h3.4Z" transform="translate(-4.55 -5.06)"/><path class="cls-4" d="M5.22,24.1l-.06,0-.06.06,0,0v.23l1,.27a.44.44,0,0,1,.23.17.49.49,0,0,1,.09.28v.23a.48.48,0,0,1-.07.24l-.13.15a1.13,1.13,0,0,1-.16.13.47.47,0,0,1-.25.07H5.2a.63.63,0,0,1-.51-.33.84.84,0,0,1-.14-.24L5,25.29a.77.77,0,0,0,.2.26h.59a.13.13,0,0,0,.06-.05l.06-.05,0,0v-.25L5.44,25l-.51-.14a.37.37,0,0,1-.24-.17.5.5,0,0,1-.08-.27v-.22A.43.43,0,0,1,4.67,24l.13-.15L5,23.72a.5.5,0,0,1,.25-.07h.55a.64.64,0,0,1,.51.32,1.46,1.46,0,0,1,.13.25L6,24.34a.59.59,0,0,0-.2-.24Z" transform="translate(-4.55 -5.06)"/><path class="cls-4" d="M8.29,26H6.81V23.66H8.29v.45h-1v.48h1v.46h-1v.48h1Z" transform="translate(-4.55 -5.06)"/><path class="cls-4" d="M10.43,24.55a.43.43,0,0,1-.07.25l-.1.11-.11.1-.09,0,.49.92H10l-.44-.88H9.24V26H8.77V23.66H9.86a.48.48,0,0,1,.29.09,1.39,1.39,0,0,1,.21.21.44.44,0,0,1,.07.26Zm-.47,0v-.34l-.1-.1H9.24v.53h.62l.05,0Z" transform="translate(-4.55 -5.06)"/><path class="cls-4" d="M12.71,23.66,12,26h-.53l-.74-2.32h.5l.5,1.66a2.12,2.12,0,0,0,.09-.27c0-.12.09-.3.17-.54s.14-.44.18-.61.07-.24.07-.24Z" transform="translate(-4.55 -5.06)"/><path class="cls-4" d="M13.54,26h-.48V23.66h.48Z" transform="translate(-4.55 -5.06)"/><path class="cls-4" d="M15.71,25.5h0a1.62,1.62,0,0,1-.1.18.73.73,0,0,1-.21.22.46.46,0,0,1-.29.1h-.45a.47.47,0,0,1-.28-.07.4.4,0,0,1-.14-.13l-.14-.15a.48.48,0,0,1-.07-.24V24.25A.43.43,0,0,1,14.1,24l.13-.14.14-.13a.53.53,0,0,1,.3-.09h.44a.64.64,0,0,1,.5.32,1,1,0,0,1,.1.17l-.46.13a.33.33,0,0,0-.16-.17h-.42a.52.52,0,0,0-.16.17v1.15l0,0,.06.05.08.05h.42a.27.27,0,0,0,.16-.17Z" transform="translate(-4.55 -5.06)"/><path class="cls-4" d="M17.58,26H16.09V23.66h1.49v.45h-1v.48h1v.46h-1v.48h1Z" transform="translate(-4.55 -5.06)"/><path class="cls-4" d="M20.44,26H19V23.66h.47v1.87h1Z" transform="translate(-4.55 -5.06)"/><path class="cls-4" d="M22.28,26H20.79V23.66h1.49v.45h-1v.48h1v.46h-1v.48h1Z" transform="translate(-4.55 -5.06)"/><path class="cls-4" d="M24.57,23.66,23.83,26h-.52l-.74-2.32h.49l.51,1.66q0-.11.09-.27c0-.12.09-.3.16-.54s.14-.44.19-.61a.78.78,0,0,0,.06-.24Z" transform="translate(-4.55 -5.06)"/><path class="cls-4" d="M26.4,26H24.91V23.66H26.4v.45h-1v.48h1v.46h-1v.48h1Z" transform="translate(-4.55 -5.06)"/><path class="cls-4" d="M28.33,26H26.87V23.66h.47v1.87h1Z" transform="translate(-4.55 -5.06)"/><path class="cls-4" d="M31.35,25.41a.48.48,0,0,1-.07.24l-.14.15-.14.13a.51.51,0,0,1-.26.07h-.53a.47.47,0,0,1-.25-.07.75.75,0,0,1-.15-.13l-.13-.15a.4.4,0,0,1-.07-.24V24.24a.36.36,0,0,1,.07-.24l.13-.15a.75.75,0,0,1,.15-.13.47.47,0,0,1,.25-.07h.53a.51.51,0,0,1,.26.07,1.41,1.41,0,0,1,.28.28.48.48,0,0,1,.07.24Zm-.48,0V24.24a.32.32,0,0,0-.14-.14h-.5a.54.54,0,0,0-.15.15V25.4a.69.69,0,0,0,.14.15h.51A.41.41,0,0,0,30.87,25.4Z" transform="translate(-4.55 -5.06)"/><path class="cls-4" d="M33.47,25.43a.39.39,0,0,1-.07.25,1.07,1.07,0,0,1-.2.22.52.52,0,0,1-.3.08H31.81V23.66H32.9a.53.53,0,0,1,.3.09l.1.11a.91.91,0,0,1,.1.1.44.44,0,0,1,.07.26v.28a.48.48,0,0,1-.13.33.44.44,0,0,1,.13.32ZM33,24.51v-.29l-.06-.07,0,0h-.61v.49h.62l0,0A.34.34,0,0,0,33,24.51Zm0,.92v-.28l-.06-.08,0,0h-.61v.49h.62l0,0S33,25.45,33,25.43Z" transform="translate(-4.55 -5.06)"/><path class="cls-4" d="M35.21,25.41a.48.48,0,0,1-.07.24.88.88,0,0,1-.14.15l-.15.13h0a.51.51,0,0,1-.26.07h-.27a.66.66,0,0,1-.52-.33.53.53,0,0,1-.08-.17l.45-.12a.41.41,0,0,0,.14.17h.3l.06-.05,0-.07V23.66h.48Z" transform="translate(-4.55 -5.06)"/><path class="cls-4" d="M37.15,26H35.66V23.66h1.49v.45h-1v.48h1v.46h-1v.48h1Z" transform="translate(-4.55 -5.06)"/><path class="cls-4" d="M39.29,25.5h0a1.62,1.62,0,0,1-.1.18.92.92,0,0,1-.22.22.46.46,0,0,1-.29.1h-.44a.47.47,0,0,1-.28-.07.52.52,0,0,1-.15-.13l-.13-.15a.4.4,0,0,1-.07-.24V24.25a.36.36,0,0,1,.07-.24.89.89,0,0,1,.12-.14l.15-.13a.5.5,0,0,1,.29-.09h.44a.64.64,0,0,1,.51.32.56.56,0,0,1,.09.17l-.45.13a.38.38,0,0,0-.16-.17h-.43a.65.65,0,0,0-.16.17v1.15l0,0,.06.05.08.05h.43a.33.33,0,0,0,.16-.17Z" transform="translate(-4.55 -5.06)"/><path class="cls-4" d="M41.25,24.11h-.6V26h-.48V24.11h-.61v-.45h1.69Z" transform="translate(-4.55 -5.06)"/><path class="cls-4" d="M42.11,26h-.48V23.66h.48Z" transform="translate(-4.55 -5.06)"/><path class="cls-4" d="M44.42,23.66,43.68,26h-.52l-.74-2.32h.5l.5,1.66q0-.11.09-.27c0-.12.09-.3.16-.54s.14-.44.19-.61a.78.78,0,0,0,.06-.24Z" transform="translate(-4.55 -5.06)"/><path class="cls-4" d="M46.25,26H44.76V23.66h1.49v.45h-1v.48h1v.46h-1v.48h1Z" transform="translate(-4.55 -5.06)"/><path class="cls-4" d="M49.4,24.22l-.44.12a.61.61,0,0,0-.21-.24h-.48a.54.54,0,0,0-.15.15v1.16s0,0,0,0l0,.06a.16.16,0,0,0,.08.06h.49a.77.77,0,0,0,.2-.23l.44.11a.8.8,0,0,1-.13.24.66.66,0,0,1-.51.33h-.51a.51.51,0,0,1-.26-.07.72.72,0,0,1-.14-.13l-.14-.15a.48.48,0,0,1-.06-.24V24.24a.43.43,0,0,1,.06-.24l.14-.15a.75.75,0,0,1,.15-.13.5.5,0,0,1,.25-.07h.51a.61.61,0,0,1,.5.32A1,1,0,0,1,49.4,24.22Z" transform="translate(-4.55 -5.06)"/><path class="cls-4" d="M51.53,25.41a.4.4,0,0,1-.07.24l-.13.15a1.2,1.2,0,0,1-.15.13.48.48,0,0,1-.26.07H50.4a.51.51,0,0,1-.26-.07A.75.75,0,0,1,50,25.8l-.13-.15a.48.48,0,0,1-.07-.24V24.24a.43.43,0,0,1,.07-.24l.13-.15a.75.75,0,0,1,.15-.13.51.51,0,0,1,.26-.07h.52a.48.48,0,0,1,.26.07,1.18,1.18,0,0,1,.28.28.4.4,0,0,1,.07.24Zm-.48,0V24.24a.35.35,0,0,0-.13-.14h-.51a.5.5,0,0,0-.14.15V25.4a.69.69,0,0,0,.14.15h.5A.41.41,0,0,0,51.05,25.4Z" transform="translate(-4.55 -5.06)"/><path class="cls-4" d="M53.69,26h-.47l-.76-1.36V26H52V23.66h.49l.74,1.39V23.66h.47Z" transform="translate(-4.55 -5.06)"/><path class="cls-4" d="M55.66,24.11h-1v.48h1v.46h-1V26h-.47V23.66h1.49Z" transform="translate(-4.55 -5.06)"/><path class="cls-4" d="M57.58,26H56.09V23.66h1.49v.45h-1v.48h1v.46h-1v.48h1Z" transform="translate(-4.55 -5.06)"/><path class="cls-4" d="M59.72,24.55a.44.44,0,0,1-.08.25.35.35,0,0,1-.09.11l-.12.1-.09,0,.49.92h-.52l-.45-.88h-.34V26h-.47V23.66h1.09a.46.46,0,0,1,.29.09,1,1,0,0,1,.21.21.45.45,0,0,1,.08.26Zm-.48,0v-.34a.32.32,0,0,0-.1-.1h-.62v.53h.62l0,0A.13.13,0,0,0,59.24,24.55Z" transform="translate(-4.55 -5.06)"/><path class="cls-4" d="M61.66,26H60.17V23.66h1.49v.45h-1v.48h1v.46h-1v.48h1Z" transform="translate(-4.55 -5.06)"/><path class="cls-4" d="M63.83,26h-.48l-.75-1.36V26h-.47V23.66h.49l.74,1.39V23.66h.47Z" transform="translate(-4.55 -5.06)"/><path class="cls-4" d="M66,25.5h0a1.62,1.62,0,0,1-.1.18.92.92,0,0,1-.22.22.45.45,0,0,1-.29.1h-.44a.47.47,0,0,1-.28-.07.52.52,0,0,1-.15-.13l-.13-.15a.4.4,0,0,1-.07-.24V24.25a.36.36,0,0,1,.07-.24.89.89,0,0,1,.12-.14l.15-.13a.5.5,0,0,1,.29-.09h.44a.64.64,0,0,1,.51.32.56.56,0,0,1,.09.17l-.45.13a.38.38,0,0,0-.16-.17H65a.55.55,0,0,0-.17.17v1.15l0,0,.06.05.08.05h.43a.3.3,0,0,0,.16-.17Z" transform="translate(-4.55 -5.06)"/><path class="cls-4" d="M67.85,26H66.37V23.66h1.48v.45h-1v.48h1v.46h-1v.48h1Z" transform="translate(-4.55 -5.06)"/></svg>