<svg id="Layer_1" data-name="Layer 1" xmlns="http://www.w3.org/2000/svg" viewBox="0 0 305.615 81.315"><defs><style>.cls-1{fill:#835ef6;}.cls-2{fill:#fff;}</style></defs><path class="cls-1" d="M534.88,320.94c0-1.9,0-2.09.19-2.47l31.14-3.8V316c0,8.73,3.23,11.77,12.72,11.77h22.79c9.49,0,12.72-3,12.72-12v-3.42c0-7.4-2.66-9.3-15-11.2l-31.52-4.56c-23.54-3.42-32.47-11.77-32.47-31.14v-16.1c0-22.59,11.58-33.8,34.94-33.8h39.87c23.36,0,34.94,11.21,34.94,33.61a6.63,6.63,0,0,1-.19,2.47l-31.14,3.8V254.1c0-8.74-3.23-11.77-12.72-11.77H579.88c-9.68,0-13.1,3.22-13.1,12v2.85c0,7.59,2.28,9.11,15.19,11l31.52,4.56c23.74,3.42,32.28,11.77,32.28,31.52v16.52c0,22.59-11.58,33.8-34.75,33.8H569.63Q534.88,354.55,534.88,320.94Z" transform="translate(-150.54 -150.36)"/><path class="cls-1" d="M766.53,325.87v26.78H673.11V217.45h31.33V325.87Z" transform="translate(-150.54 -150.36)"/><path class="cls-1" d="M891.66,249.35v71.4c0,22.59-11.58,33.8-34.94,33.8H815.9c-23.17,0-34.75-11.21-34.75-33.8v-71.4c0-22.59,11.58-33.8,34.75-33.8h40.82C880.08,215.55,891.66,226.76,891.66,249.35Zm-44-7H825.2c-9.49,0-12.72,3-12.72,12v61.52c0,8.92,3.23,12,12.72,12h22.41c9.49,0,12.72-3,12.72-12V254.29c0-8.93-3.23-12-12.72-12Z" transform="translate(-150.54 -150.36)"/><path class="cls-2" d="M917.86,325.49v-54.3c0-20.13,9.49-29.05,30.38-29.05h38.17c20.88,0,30.38,8.92,30.38,29.05a15.2,15.2,0,0,1-.19,3.23L987,277.07v-1.13c0-7.6-2.85-10.07-10.83-10.07H958.5c-8,0-10.83,2.47-10.83,10.07v44.81c0,7.59,2.85,10.06,10.83,10.06h17.65c8,0,10.83-2.47,10.83-10.06v-1.14l29.62,2.66a15.07,15.07,0,0,1,.19,3.22c0,20.13-9.5,29.06-30.38,29.06H948.24C927.35,354.55,917.86,345.62,917.86,325.49Z" transform="translate(-150.54 -150.36)"/><path class="cls-2" d="M1040.14,325.49v-54.3c0-20.13,9.49-29.05,30.38-29.05h40.83c20.88,0,30.38,8.92,30.38,29.05v54.3c0,20.13-9.5,29.06-30.38,29.06h-40.83C1049.63,354.55,1040.14,345.62,1040.14,325.49Zm60.95,5.32c8,0,10.83-2.47,10.83-10.06V275.94c0-7.6-2.85-10.07-10.83-10.07h-20.32c-8,0-10.82,2.47-10.82,10.07v44.81c0,7.59,2.85,10.06,10.82,10.06Z" transform="translate(-150.54 -150.36)"/><path class="cls-2" d="M1267.8,271.19v81.46H1238V275.94c0-7.6-2.84-10.07-10.82-10.07H1209.9c-8,0-10.82,2.47-10.82,10.07v76.71h-29.81V264.92L1167.93,244h25.25l1.9,7.78c3.8-6.65,9.87-9.68,22-9.68h20.31C1258.31,242.14,1267.8,251.06,1267.8,271.19Z" transform="translate(-150.54 -150.36)"/><path class="cls-2" d="M1342.62,238.34V244H1373v23.73h-30.38v84.88H1312.8V267.77h-25.25V244h25.25V233.59c0-20.13,9.5-29.05,30.57-29.05H1373v23.73h-19.56C1345.46,228.27,1342.62,230.74,1342.62,238.34Z" transform="translate(-150.54 -150.36)"/><path class="cls-2" d="M554.39,398.59a4.81,4.81,0,0,0-2.23-3.61,8.5,8.5,0,0,0-4.81-1.29,9.06,9.06,0,0,0-3.64.68,5.78,5.78,0,0,0-2.41,1.85,4.39,4.39,0,0,0-.87,2.68,3.74,3.74,0,0,0,.61,2.15,5.12,5.12,0,0,0,1.55,1.49,10.68,10.68,0,0,0,2,1c.69.25,1.33.45,1.91.6l3.19.86c.81.22,1.72.51,2.73.89a12.53,12.53,0,0,1,2.89,1.54,8,8,0,0,1,2.29,2.49,7.2,7.2,0,0,1,.91,3.72,8.3,8.3,0,0,1-1.33,4.59,9.06,9.06,0,0,1-3.86,3.26,16.16,16.16,0,0,1-12,.12,9.18,9.18,0,0,1-3.86-3A8.7,8.7,0,0,1,535.9,414h3.92a4.81,4.81,0,0,0,1.18,3,6.23,6.23,0,0,0,2.66,1.71,10.59,10.59,0,0,0,3.49.56,10.21,10.21,0,0,0,3.9-.71,6.72,6.72,0,0,0,2.74-2,4.7,4.7,0,0,0,1-3A3.69,3.69,0,0,0,554,411a6.55,6.55,0,0,0-2.3-1.59,25.33,25.33,0,0,0-3.07-1.07l-3.86-1.1a14.45,14.45,0,0,1-5.82-3,6.6,6.6,0,0,1-2.14-5.13,7.58,7.58,0,0,1,1.43-4.6,9.48,9.48,0,0,1,3.86-3.06,13,13,0,0,1,5.42-1.09,12.83,12.83,0,0,1,5.39,1.08,9.53,9.53,0,0,1,3.74,2.94,7.3,7.3,0,0,1,1.47,4.24Z" transform="translate(-150.54 -150.36)"/><path class="cls-2" d="M563.88,422.11V390.76H582.8v3.36H567.67v10.6h14.15v3.36H567.67v10.66H583v3.37Z" transform="translate(-150.54 -150.36)"/><path class="cls-2" d="M588.79,422.11V390.76h10.6a12.82,12.82,0,0,1,6,1.24,8.22,8.22,0,0,1,3.49,3.42,10.61,10.61,0,0,1,1.13,4.95,10.47,10.47,0,0,1-1.13,4.91,7.9,7.9,0,0,1-3.48,3.36,12.93,12.93,0,0,1-6,1.22h-8.57v-3.43h8.45a9.47,9.47,0,0,0,4-.73,4.67,4.67,0,0,0,2.23-2.09,7,7,0,0,0,.7-3.24,7.34,7.34,0,0,0-.71-3.29,4.85,4.85,0,0,0-2.25-2.18,9.09,9.09,0,0,0-4.08-.78h-6.68v28ZM603.55,408l7.72,14.09h-4.41L599.27,408Z" transform="translate(-150.54 -150.36)"/><path class="cls-2" d="M616,390.76l9.31,26.39h.36L635,390.76h4l-11.51,31.35h-3.92l-11.51-31.35Z" transform="translate(-150.54 -150.36)"/><path class="cls-2" d="M646.83,390.76v31.35H643V390.76Z" transform="translate(-150.54 -150.36)"/><path class="cls-2" d="M678.79,400.55H675a7.67,7.67,0,0,0-1.17-2.87,8,8,0,0,0-2-2.09,8.51,8.51,0,0,0-2.62-1.28,10.13,10.13,0,0,0-3-.43,9.54,9.54,0,0,0-5.15,1.44,9.91,9.91,0,0,0-3.66,4.24,18.09,18.09,0,0,0,0,13.75,10,10,0,0,0,3.66,4.24,9.56,9.56,0,0,0,5.15,1.43,10.87,10.87,0,0,0,3-.42,8.86,8.86,0,0,0,2.62-1.28,8.07,8.07,0,0,0,3.17-5h3.8a12.92,12.92,0,0,1-1.56,4.3,11.59,11.59,0,0,1-2.82,3.22,12.32,12.32,0,0,1-3.77,2,14.09,14.09,0,0,1-4.46.69,13.24,13.24,0,0,1-7.14-2,13.45,13.45,0,0,1-4.91-5.58,21.38,21.38,0,0,1,0-17.14,13.43,13.43,0,0,1,4.91-5.57,13.16,13.16,0,0,1,7.14-2,14.09,14.09,0,0,1,4.46.69,12.32,12.32,0,0,1,3.77,2,11.55,11.55,0,0,1,2.82,3.21A12.88,12.88,0,0,1,678.79,400.55Z" transform="translate(-150.54 -150.36)"/><path class="cls-2" d="M684.05,422.11V390.76h19v3.36H687.85v10.6H702v3.36H687.85v10.66h15.37v3.37Z" transform="translate(-150.54 -150.36)"/><path class="cls-2" d="M720.23,422.11V390.76H724v28h14.6v3.37Z" transform="translate(-150.54 -150.36)"/><path class="cls-2" d="M743.62,422.11V390.76h18.92v3.36H747.41v10.6h14.15v3.36H747.41v10.66h15.37v3.37Z" transform="translate(-150.54 -150.36)"/><path class="cls-2" d="M769.82,390.76l9.31,26.39h.36l9.31-26.39h4l-11.51,31.35h-3.92l-11.51-31.35Z" transform="translate(-150.54 -150.36)"/><path class="cls-2" d="M796.82,422.11V390.76h18.92v3.36H800.61v10.6h14.15v3.36H800.61v10.66H816v3.37Z" transform="translate(-150.54 -150.36)"/><path class="cls-2" d="M821.73,422.11V390.76h3.8v28H840.1v3.37Z" transform="translate(-150.54 -150.36)"/><path class="cls-2" d="M882.83,406.43A19,19,0,0,1,881,415a13.45,13.45,0,0,1-4.91,5.58,14,14,0,0,1-14.27,0A13.57,13.57,0,0,1,857,415a21.38,21.38,0,0,1,0-17.14,13.43,13.43,0,0,1,4.91-5.57,14,14,0,0,1,14.27,0,13.43,13.43,0,0,1,4.91,5.57A19,19,0,0,1,882.83,406.43Zm-3.67,0a15.77,15.77,0,0,0-1.35-6.87,9.64,9.64,0,0,0-14-4.24,9.91,9.91,0,0,0-3.66,4.24,18.09,18.09,0,0,0,0,13.75,9.64,9.64,0,0,0,17.62,0,15.79,15.79,0,0,0,1.35-6.88Z" transform="translate(-150.54 -150.36)"/><path class="cls-2" d="M888.34,422.11V390.76h11a11.46,11.46,0,0,1,5.4,1.12,7.46,7.46,0,0,1,3.17,3,8.44,8.44,0,0,1,1,4.18,6.89,6.89,0,0,1-.71,3.34,5.67,5.67,0,0,1-1.87,2.08,8.84,8.84,0,0,1-2.5,1.14v.3a6.14,6.14,0,0,1,2.9,1,7.39,7.39,0,0,1,2.43,2.63,9.21,9.21,0,0,1-.09,8.44,7.37,7.37,0,0,1-3.39,3,13.87,13.87,0,0,1-6,1.11Zm3.8-17.58h7a6.93,6.93,0,0,0,3.1-.67,5.46,5.46,0,0,0,2.2-1.9,5,5,0,0,0,.82-2.88,4.81,4.81,0,0,0-1.44-3.51,6.26,6.26,0,0,0-4.56-1.45H892.1Zm0,14.21h7.53q3.72,0,5.29-1.45a4.63,4.63,0,0,0,1.57-3.51,5.58,5.58,0,0,0-.81-2.95,6,6,0,0,0-2.32-2.17,7.3,7.3,0,0,0-3.55-.82h-7.71Z" transform="translate(-150.54 -150.36)"/><path class="cls-2" d="M927.52,390.76h3.8v22.41a10.92,10.92,0,0,1-1.1,5.09,7.59,7.59,0,0,1-3.11,3.19,9.84,9.84,0,0,1-4.73,1.09,10.65,10.65,0,0,1-4.58-1,7.52,7.52,0,0,1-3.15-2.68,7.34,7.34,0,0,1-1.15-4.15h3.74a4.07,4.07,0,0,0,.66,2.32,4.49,4.49,0,0,0,1.83,1.54,6.21,6.21,0,0,0,2.65.55,5.33,5.33,0,0,0,2.79-.69,4.42,4.42,0,0,0,1.75-2,8,8,0,0,0,.6-3.28Z" transform="translate(-150.54 -150.36)"/><path class="cls-2" d="M938.05,422.11V390.76h19v3.36H941.85v10.6H956v3.36H941.85v10.66h15.37v3.37Z" transform="translate(-150.54 -150.36)"/><path class="cls-2" d="M988.19,400.55H984.4a7.93,7.93,0,0,0-3.19-5,8.68,8.68,0,0,0-2.63-1.28,10.13,10.13,0,0,0-3-.43,9.54,9.54,0,0,0-5.15,1.44,9.91,9.91,0,0,0-3.66,4.24,18.18,18.18,0,0,0,0,13.75,10,10,0,0,0,3.66,4.24,9.65,9.65,0,0,0,5.15,1.43,10.87,10.87,0,0,0,3-.42,8.92,8.92,0,0,0,2.63-1.28,8,8,0,0,0,3.19-5h3.79a12.42,12.42,0,0,1-1.56,4.3,11.55,11.55,0,0,1-2.81,3.22,12.26,12.26,0,0,1-3.78,2,14.09,14.09,0,0,1-4.46.69,13.21,13.21,0,0,1-7.13-2,13.55,13.55,0,0,1-4.92-5.58,21.38,21.38,0,0,1,0-17.14,13.45,13.45,0,0,1,4.92-5.57,13.1,13.1,0,0,1,7.13-2A14.19,14.19,0,0,1,980,391a12.26,12.26,0,0,1,3.78,2,11.66,11.66,0,0,1,2.81,3.21A12.49,12.49,0,0,1,988.19,400.55Z" transform="translate(-150.54 -150.36)"/><path class="cls-2" d="M991.74,394.12v-3.36h23.52v3.36h-9.86v28h-3.8v-28Z" transform="translate(-150.54 -150.36)"/><path class="cls-2" d="M1024.07,390.76v31.35h-3.8V390.76Z" transform="translate(-150.54 -150.36)"/><path class="cls-2" d="M1032.08,390.76l9.31,26.39h.37l9.3-26.39h4l-11.52,31.35h-3.92l-11.51-31.35Z" transform="translate(-150.54 -150.36)"/><path class="cls-2" d="M1059.08,422.11V390.76H1078v3.36h-15.12v10.6H1077v3.36h-14.14v10.66h15.37v3.37Z" transform="translate(-150.54 -150.36)"/><path class="cls-2" d="M1120.49,400.55h-3.8a7.67,7.67,0,0,0-1.17-2.87,8,8,0,0,0-2-2.09,8.68,8.68,0,0,0-2.63-1.28,10.13,10.13,0,0,0-3-.43,9.54,9.54,0,0,0-5.15,1.44,10,10,0,0,0-3.66,4.24,18.18,18.18,0,0,0,0,13.75,10,10,0,0,0,3.66,4.24,9.65,9.65,0,0,0,5.15,1.43,10.87,10.87,0,0,0,3-.42,8.92,8.92,0,0,0,2.63-1.28,8.32,8.32,0,0,0,2-2.1,7.91,7.91,0,0,0,1.17-2.87h3.8a12.92,12.92,0,0,1-1.56,4.3,11.59,11.59,0,0,1-2.82,3.22,12.32,12.32,0,0,1-3.77,2,14.11,14.11,0,0,1-4.47.69,13.21,13.21,0,0,1-7.13-2,13.45,13.45,0,0,1-4.91-5.58,21.38,21.38,0,0,1,0-17.14,13.43,13.43,0,0,1,4.91-5.57,13.1,13.1,0,0,1,7.13-2,14.11,14.11,0,0,1,4.47.69,12.32,12.32,0,0,1,3.77,2,11.86,11.86,0,0,1,2.82,3.21A12.62,12.62,0,0,1,1120.49,400.55Z" transform="translate(-150.54 -150.36)"/><path class="cls-2" d="M1152.2,406.43a19.19,19.19,0,0,1-1.79,8.57,13.45,13.45,0,0,1-4.91,5.58,14,14,0,0,1-14.27,0,13.45,13.45,0,0,1-4.91-5.58,21.3,21.3,0,0,1,0-17.14,13.43,13.43,0,0,1,4.91-5.57,14,14,0,0,1,14.27,0,13.43,13.43,0,0,1,4.91,5.57A19.19,19.19,0,0,1,1152.2,406.43Zm-3.67,0a15.64,15.64,0,0,0-1.36-6.87,9.64,9.64,0,0,0-14-4.24,10,10,0,0,0-3.66,4.24,18.18,18.18,0,0,0,0,13.75,9.64,9.64,0,0,0,17.62,0,15.65,15.65,0,0,0,1.36-6.88Z" transform="translate(-150.54 -150.36)"/><path class="cls-2" d="M1182.57,390.76v31.35h-3.68l-17.08-24.62h-.31v24.62h-3.79V390.76h3.67l17.15,24.67h.3V390.76Z" transform="translate(-150.54 -150.36)"/><path class="cls-2" d="M1189.3,422.11V390.76h18.8v3.36h-15v10.6h13.6v3.36h-13.6v14Z" transform="translate(-150.54 -150.36)"/><path class="cls-2" d="M1213.73,422.11V390.76h18.92v3.36h-15.13v10.6h14.15v3.36h-14.15v10.66h15.37v3.37Z" transform="translate(-150.54 -150.36)"/><path class="cls-2" d="M1238.64,422.11V390.76h10.59a12.94,12.94,0,0,1,6,1.24,8.22,8.22,0,0,1,3.49,3.42,10.61,10.61,0,0,1,1.13,4.95,10.47,10.47,0,0,1-1.13,4.91,8,8,0,0,1-3.48,3.36,12.93,12.93,0,0,1-6,1.22h-8.58v-3.43h8.45a9.45,9.45,0,0,0,4-.73,4.69,4.69,0,0,0,2.24-2.09,7.11,7.11,0,0,0,.69-3.24,7.2,7.2,0,0,0-.7-3.29,4.85,4.85,0,0,0-2.25-2.18,9.11,9.11,0,0,0-4.09-.78h-6.67v28ZM1253.4,408l7.71,14.09h-4.4l-7.6-14.09Z" transform="translate(-150.54 -150.36)"/><path class="cls-2" d="M1265.33,422.11V390.76h18.92v3.36h-15.12v10.6h14.14v3.36h-14.14v10.66h15.37v3.37Z" transform="translate(-150.54 -150.36)"/><path class="cls-2" d="M1315.11,390.76v31.35h-3.67l-17.09-24.62h-.3v24.62h-3.8V390.76h3.67l17.15,24.67h.31V390.76Z" transform="translate(-150.54 -150.36)"/><path class="cls-2" d="M1347.07,400.55h-3.8a7.67,7.67,0,0,0-1.17-2.87,8,8,0,0,0-2-2.09,8.51,8.51,0,0,0-2.62-1.28,10.46,10.46,0,0,0-3-.43,9.54,9.54,0,0,0-5.15,1.44,9.88,9.88,0,0,0-3.65,4.24,18.09,18.09,0,0,0,0,13.75,10,10,0,0,0,3.65,4.24,9.65,9.65,0,0,0,5.15,1.43,10.92,10.92,0,0,0,3-.42,9.11,9.11,0,0,0,2.62-1.28,8.32,8.32,0,0,0,2-2.1,7.91,7.91,0,0,0,1.17-2.87h3.8a12.92,12.92,0,0,1-1.56,4.3,11.59,11.59,0,0,1-2.82,3.22,12.32,12.32,0,0,1-3.77,2,14.11,14.11,0,0,1-4.47.69,13.21,13.21,0,0,1-7.13-2,13.45,13.45,0,0,1-4.91-5.58,21.38,21.38,0,0,1,0-17.14,13.43,13.43,0,0,1,4.91-5.57,13.1,13.1,0,0,1,7.13-2,14.11,14.11,0,0,1,4.47.69,12.32,12.32,0,0,1,3.77,2,11.86,11.86,0,0,1,2.82,3.21A12.62,12.62,0,0,1,1347.07,400.55Z" transform="translate(-150.54 -150.36)"/><path class="cls-2" d="M1352.33,422.11V390.76h18.92v3.36h-15.12v10.6h14.14v3.36h-14.14v10.66h15.37v3.37Z" transform="translate(-150.54 -150.36)"/><path class="cls-1" d="M433,313a128.88,128.88,0,0,0-1-16.19l1-3.42L460.36,256l-28.07-48.61-48.12,5.23a126.79,126.79,0,0,0-31.14-18l-19.51-44.26H277.39l-19.52,44.26a126.79,126.79,0,0,0-31.14,18l-48.12-5.23L150.54,256l28.59,39a126.69,126.69,0,0,0-.23,34.08l-.91,3.43L150.54,370l28.07,48.61,48.12-5.24a126.79,126.79,0,0,0,31.14,18l19.52,44.25h56.13L353,431.41a127.62,127.62,0,0,0,31.14-18l48.12,5.24L460.36,370l-28.59-39A129,129,0,0,0,433,313ZM203.9,236.82A126.31,126.31,0,0,0,184.29,275L169.6,254.94l17.64-30.56,40.63,4.42a9,9,0,0,0,6.69-2,111.41,111.41,0,0,1,31.71-18.33,9,9,0,0,0,5.06-4.78l16.48-37.37h35.28l9.63,21.83A128.27,128.27,0,0,0,304.36,185h-7.87v15.74h7.87a111,111,0,0,1,38.46,6.82,9,9,0,0,0,1.82.94,111.47,111.47,0,0,1,16,7.5,112.89,112.89,0,0,1,10.47,7l6.3,4.73.08-.1A9,9,0,0,0,383,228.8l40.64-4.42,17.64,30.56L417.61,287.3l-24.24,15.43c-11.87-14.55-46.18-51.58-87.92-51.58-48.35,0-86.74,49.69-91.81,56.56l-19.38,11.93V313a110.05,110.05,0,0,1,22.19-66.67m13,66.78c10.11-12.38,41-46.22,76-46.22s65.92,33.84,76,46.22c-9.71,12.4-39.39,46-76,46s-66.34-33.61-76-46Zm179.29,73.73A126.37,126.37,0,0,0,426.61,351l14.69,20.08-17.64,30.56L383,397.2a9,9,0,0,0-6.66,2,111,111,0,0,1-31.69,18.32,9.07,9.07,0,0,0-5.08,4.8l-16.48,37.37H287.81L277.34,436a127.62,127.62,0,0,0,27,2.89h7.87V423.1h-7.87a110.44,110.44,0,0,1-64.68-20.73l-6.67-4.2a9,9,0,0,0-5.12-1l-40.65,4.42L169.6,371.06l23.65-32.31,24.43-15c11.8,15,44.72,51.14,87.77,51.14,48.09,0,83.55-45.12,91-55.44l20.15-12.83V313a110.32,110.32,0,0,1-20.73,64.67" transform="translate(-150.54 -150.36)"/><circle class="cls-1" cx="154.91" cy="162.64" r="30.84"/></svg>