<svg id="Layer_1" data-name="Layer 1" xmlns="http://www.w3.org/2000/svg" viewBox="0 0 63.77 26.93"><defs><style>.cls-1{fill:#dfeaef;}.cls-2{fill:#b4d0d5;}.cls-3{fill:#dd636e;}.cls-4{font-size:26.54px;}.cls-4,.cls-5,.cls-6{fill:#fff;font-family:BlenderPro-Heavy, Blender Pro;font-weight:800;}.cls-5{font-size:8.85px;}.cls-6{font-size:3.87px;}</style></defs><path class="cls-1" d="M61.49,17a3.49,3.49,0,0,0-.06-.65.33.33,0,0,1,.12-.29l.58-.42a.28.28,0,0,0,.08-.38l-.84-1.46a.29.29,0,0,0-.37-.12l-.66.29a.27.27,0,0,1-.3,0,4.1,4.1,0,0,0-1.13-.65.3.3,0,0,1-.19-.24l-.07-.72a.29.29,0,0,0-.29-.26H56.67a.29.29,0,0,0-.29.26l-.07.72a.3.3,0,0,1-.19.24,4.1,4.1,0,0,0-1.13.65.27.27,0,0,1-.3,0L54,13.68a.29.29,0,0,0-.37.12l-.84,1.46a.28.28,0,0,0,.08.38l.58.42a.33.33,0,0,1,.12.29,3.55,3.55,0,0,0,0,1.3.3.3,0,0,1-.12.28l-.58.43a.28.28,0,0,0-.08.38l.84,1.46a.29.29,0,0,0,.37.12l.66-.29a.27.27,0,0,1,.3,0,4.37,4.37,0,0,0,1.13.65.3.3,0,0,1,.19.24l.07.72a.29.29,0,0,0,.29.26h1.69a.29.29,0,0,0,.29-.26l.07-.72a.3.3,0,0,1,.19-.24A4.37,4.37,0,0,0,60,20.07a.27.27,0,0,1,.3,0l.66.29a.29.29,0,0,0,.37-.12l.84-1.46a.28.28,0,0,0-.08-.38l-.58-.43a.3.3,0,0,1-.12-.28A3.49,3.49,0,0,0,61.49,17Z" transform="translate(-4.41 0.14)"/><path class="cls-2" d="M57.18,12.06a.29.29,0,0,0-.29.26l-.08.72a.28.28,0,0,1-.18.24,1.62,1.62,0,0,1-.56,0l0,0a.3.3,0,0,0,.19-.24l.07-.72a.29.29,0,0,1,.29-.26Z" transform="translate(-4.41 0.14)"/><path class="cls-2" d="M54.17,20.2l-.85-1.46a.29.29,0,0,1,.08-.38l.59-.43a.27.27,0,0,0,.11-.28,4.25,4.25,0,0,1,0-1.3.3.3,0,0,0-.11-.29l-.59-.42a.3.3,0,0,1-.08-.38l.85-1.46,0-.05L54,13.68a.29.29,0,0,0-.37.12l-.84,1.46a.28.28,0,0,0,.08.38l.58.42a.33.33,0,0,1,.12.29,3.55,3.55,0,0,0,0,1.3.3.3,0,0,1-.12.28l-.58.43a.28.28,0,0,0-.08.38l.84,1.46a.29.29,0,0,0,.37.12l.17-.08,0,0Z" transform="translate(-4.41 0.14)"/><path class="cls-2" d="M57.18,21.94h-.51a.29.29,0,0,1-.29-.26L56.31,21a.3.3,0,0,0-.19-.24h0a1.15,1.15,0,0,1,.53,0,.28.28,0,0,1,.18.24l.08.72a.29.29,0,0,0,.29.26Z" transform="translate(-4.41 0.14)"/><path class="cls-3" d="M60,16a1.38,1.38,0,0,0-1.94,0l-.54.55L57,16A1.38,1.38,0,0,0,55,16a1.35,1.35,0,0,0-.4,1,1.37,1.37,0,0,0,.4,1A1.38,1.38,0,0,0,57,18l.55-.55.54.55A1.38,1.38,0,0,0,60,18,1.38,1.38,0,0,0,60,16Zm-3.45,1.52a.78.78,0,0,1-1.1,0,.8.8,0,0,1,0-1.1.79.79,0,0,1,.55-.22.77.77,0,0,1,.55.22l.54.55Zm3,0a.78.78,0,0,1-1.1,0L57.94,17l.54-.55a.78.78,0,0,1,1.1,0,.8.8,0,0,1,0,1.1Z" transform="translate(-4.41 0.14)"/><path d="M58.05,22.09H56.37a.44.44,0,0,1-.44-.4L55.86,21a.14.14,0,0,0-.09-.12,4.22,4.22,0,0,1-1.18-.68.14.14,0,0,0-.14,0l-.66.29a.42.42,0,0,1-.56-.18l-.85-1.46a.43.43,0,0,1,.13-.57l.58-.43a.14.14,0,0,0,.06-.13,3.91,3.91,0,0,1-.06-.68,3.82,3.82,0,0,1,.06-.68.16.16,0,0,0-.06-.14l-.58-.42a.44.44,0,0,1-.13-.58l.85-1.46a.44.44,0,0,1,.56-.18l.66.3a.14.14,0,0,0,.14,0,4.1,4.1,0,0,1,.5-.35.14.14,0,0,1,.2,0,.15.15,0,0,1,0,.2,4.84,4.84,0,0,0-.46.33.45.45,0,0,1-.46.06l-.65-.3a.17.17,0,0,0-.19.06l-.84,1.46a.15.15,0,0,0,0,.19l.58.42a.44.44,0,0,1,.18.43,4,4,0,0,0,0,1.26.41.41,0,0,1-.18.42l-.58.43a.14.14,0,0,0,0,.18l.84,1.46a.15.15,0,0,0,.19.06l.65-.29a.43.43,0,0,1,.46.06,4,4,0,0,0,1.09.63.42.42,0,0,1,.28.37l.08.71a.15.15,0,0,0,.14.13h1.68a.15.15,0,0,0,.15-.13l.07-.71a.45.45,0,0,1,.28-.37A3.7,3.7,0,0,0,59.64,20a.43.43,0,0,1,.46-.06l.66.29a.13.13,0,0,0,.18-.06l.84-1.46a.13.13,0,0,0,0-.18l-.58-.43a.43.43,0,0,1-.18-.42,3.34,3.34,0,0,0,0-1.26.46.46,0,0,1,.18-.43l.58-.42a.14.14,0,0,0,0-.19l-.84-1.46a.16.16,0,0,0-.18-.06l-.66.3a.45.45,0,0,1-.46-.06,3.7,3.7,0,0,0-1.09-.63.45.45,0,0,1-.28-.37l-.07-.71a.14.14,0,0,0-.15-.13H56.37a.14.14,0,0,0-.14.13l-.08.71a.42.42,0,0,1-.28.37l-.12.05a.15.15,0,0,1-.19-.08.14.14,0,0,1,.08-.2l.13,0a.16.16,0,0,0,.09-.12l.07-.71a.44.44,0,0,1,.44-.4h1.68a.44.44,0,0,1,.44.4l.08.71a.14.14,0,0,0,.09.12,4.16,4.16,0,0,1,1.17.68.16.16,0,0,0,.15,0l.66-.3a.45.45,0,0,1,.56.18L62,15.18a.45.45,0,0,1-.12.58l-.58.42a.14.14,0,0,0-.06.14,3.82,3.82,0,0,1,0,.68,3.89,3.89,0,0,1,0,.68.12.12,0,0,0,.06.13l.58.43a.44.44,0,0,1,.12.57l-.84,1.46a.43.43,0,0,1-.56.18L60,20.16a.16.16,0,0,0-.15,0,4.16,4.16,0,0,1-1.17.68.13.13,0,0,0-.09.12l-.08.71a.44.44,0,0,1-.44.4Z" transform="translate(-4.41 0.14)"/><path d="M59,18.52a1.62,1.62,0,0,1-.44-.07.15.15,0,0,1-.1-.19.14.14,0,0,1,.18-.09,1.49,1.49,0,0,0,.36,0,1.22,1.22,0,1,0-.86-2.08l-.55.54a.15.15,0,0,1-.21,0l-.55-.54a1.22,1.22,0,0,0-2.08.86,1.22,1.22,0,0,0,.36.86,1.21,1.21,0,0,0,1.72,0l.55-.55a.17.17,0,0,1,.21,0l.55.55,0,.05a.16.16,0,0,1,0,.21.15.15,0,0,1-.21,0,.23.23,0,0,1-.07-.07l-.44-.44-.45.44a1.5,1.5,0,0,1-2.14,0A1.49,1.49,0,0,1,54.48,17a1.47,1.47,0,0,1,.45-1.07,1.5,1.5,0,0,1,2.14,0l.45.44.44-.44a1.51,1.51,0,0,1,2.14,2.14,1.47,1.47,0,0,1-1.07.45Zm-3-.6a.91.91,0,0,1-.65-.27.89.89,0,0,1-.27-.65.92.92,0,0,1,1.57-.65l.55.54a.14.14,0,0,1,0,.21l-.55.55a.91.91,0,0,1-.65.27Zm0-1.54a.62.62,0,1,0,.44,1.06l.44-.44-.44-.44a.6.6,0,0,0-.44-.18Zm3,1.54a.91.91,0,0,1-.65-.27l-.55-.55a.14.14,0,0,1,0-.21l.55-.54a.92.92,0,0,1,1.3,0A.88.88,0,0,1,60,17a.89.89,0,0,1-.27.65.91.91,0,0,1-.65.27ZM58.15,17l.44.44a.63.63,0,0,0,.88,0,.63.63,0,0,0,0-.88.61.61,0,0,0-.88,0Zm1.43.55Z" transform="translate(-4.41 0.14)"/><path d="M59.21,15.33a.21.21,0,0,1-.11,0,2.31,2.31,0,0,0-3.17,0,.17.17,0,0,1-.22,0,.15.15,0,0,1,0-.21,2.62,2.62,0,0,1,3.59,0,.15.15,0,0,1,0,.21A.16.16,0,0,1,59.21,15.33Z" transform="translate(-4.41 0.14)"/><path d="M57.52,19.63a2.66,2.66,0,0,1-1.8-.7.15.15,0,0,1,0-.21.17.17,0,0,1,.22,0,2.31,2.31,0,0,0,3.17,0,.17.17,0,0,1,.22,0,.15.15,0,0,1,0,.21A2.65,2.65,0,0,1,57.52,19.63Z" transform="translate(-4.41 0.14)"/><text class="cls-4" transform="translate(0 21.24)">SLO</text><text class="cls-5" transform="translate(43.88 10.66)">Conf</text><text class="cls-6" transform="translate(0.07 26.12)">Service level objective Conference</text></svg>