<?xml version="1.0" encoding="utf-8"?>
<!-- Generator: Adobe Illustrator 25.1.0, SVG Export Plug-In . SVG Version: 6.00 Build 0)  -->
<svg version="1.1" id="Layer_1" xmlns="http://www.w3.org/2000/svg" xmlns:xlink="http://www.w3.org/1999/xlink" x="0px" y="0px"
	 viewBox="0 0 203 54" style="enable-background:new 0 0 203 54;" xml:space="preserve">
<style type="text/css">
	.st0{fill:#835EF6;}
	.st1{fill:#FFFFFF;}
</style>
<path class="st0" d="M62.9,27.9c0-0.3,0-0.3,0-0.4l5.1-0.6v0.2c0,1.4,0.5,1.9,2.1,1.9h3.7c1.6,0,2.1-0.5,2.1-2v-0.6
	c0-1.2-0.4-1.5-2.5-1.8l-5.2-0.7C64.4,23.4,63,22,63,18.8v-2.6c0-3.7,1.9-5.5,5.7-5.5h6.5c3.8,0,5.7,1.8,5.7,5.5c0,0.1,0,0.3,0,0.4
	l-5.1,0.6V17c0-1.4-0.5-1.9-2.1-1.9h-3.5c-1.6,0-2.1,0.5-2.1,2v0.5c0,1.2,0.4,1.5,2.5,1.8l5.2,0.7c3.9,0.6,5.3,1.9,5.3,5.2v2.7
	c0,3.7-1.9,5.5-5.7,5.5h-6.8C64.8,33.4,62.9,31.6,62.9,27.9z"/>
<path class="st0" d="M100.8,28.7v4.4H85.5V11h5.1v17.7H100.8z"/>
<path class="st0" d="M121.3,16.2v11.7c0,3.7-1.9,5.5-5.7,5.5h-6.7c-3.8,0-5.7-1.8-5.7-5.5V16.2c0-3.7,1.9-5.5,5.7-5.5h6.7
	C119.4,10.7,121.3,12.5,121.3,16.2z M114.1,15h-3.7c-1.6,0-2.1,0.5-2.1,2v10.1c0,1.5,0.5,2,2.1,2h3.7c1.6,0,2.1-0.5,2.1-2V17
	C116.1,15.5,115.6,15,114.1,15L114.1,15z"/>
<path class="st1" d="M125.5,28.7v-8.9c0-3.3,1.6-4.8,5-4.8h6.2c3.4,0,5,1.5,5,4.8c0,0.2,0,0.4,0,0.5l-4.8,0.4v-0.2
	c0-1.2-0.5-1.6-1.8-1.6h-2.9c-1.3,0-1.8,0.4-1.8,1.6v7.3c0,1.2,0.5,1.6,1.8,1.6h2.9c1.3,0,1.8-0.4,1.8-1.6v-0.2l4.8,0.4
	c0,0.2,0,0.4,0,0.5c0,3.3-1.6,4.8-5,4.8h-6.2C127.1,33.4,125.5,31.9,125.5,28.7z"/>
<path class="st1" d="M145.5,28.7v-8.9c0-3.3,1.6-4.8,5-4.8h6.7c3.4,0,5,1.5,5,4.8v8.9c0,3.3-1.6,4.8-5,4.8h-6.7
	C147.1,33.4,145.5,31.9,145.5,28.7z M155.5,29.5c1.3,0,1.8-0.4,1.8-1.6v-7.3c0-1.2-0.5-1.6-1.8-1.6h-3.3c-1.3,0-1.8,0.4-1.8,1.6v7.3
	c0,1.2,0.5,1.6,1.8,1.6H155.5z"/>
<path class="st1" d="M182.8,19.8v13.3h-4.9V20.5c0-1.2-0.5-1.6-1.8-1.6h-2.8c-1.3,0-1.8,0.4-1.8,1.6v12.6h-4.9V18.7l-0.2-3.4h4.1
	l0.3,1.3c0.6-1.1,1.6-1.6,3.6-1.6h3.3C181.2,15,182.8,16.5,182.8,19.8z"/>
<path class="st1" d="M195,14.4v0.9h5v3.9h-5v13.9h-4.9V19.2H186v-3.9h4.1v-1.7c0-3.3,1.6-4.8,5-4.8h4.8v3.9h-3.2
	C195.5,12.7,195,13.2,195,14.4z"/>
<path class="st1" d="M66.1,40.6c0-0.2-0.2-0.5-0.4-0.6c-0.2-0.1-0.5-0.2-0.8-0.2c-0.2,0-0.4,0-0.6,0.1c-0.2,0.1-0.3,0.2-0.4,0.3
	c-0.1,0.1-0.1,0.3-0.1,0.4c0,0.1,0,0.2,0.1,0.4c0.1,0.1,0.2,0.2,0.3,0.2c0.1,0.1,0.2,0.1,0.3,0.2c0.1,0,0.2,0.1,0.3,0.1l0.5,0.1
	c0.1,0,0.3,0.1,0.4,0.1c0.2,0.1,0.3,0.1,0.5,0.3c0.2,0.1,0.3,0.2,0.4,0.4c0.1,0.2,0.2,0.4,0.1,0.6c0,0.3-0.1,0.5-0.2,0.8
	c-0.2,0.2-0.4,0.4-0.6,0.5c-0.6,0.3-1.3,0.3-2,0c-0.3-0.1-0.5-0.3-0.6-0.5c-0.2-0.2-0.2-0.5-0.3-0.8h0.6c0,0.2,0.1,0.4,0.2,0.5
	c0.1,0.1,0.3,0.2,0.4,0.3c0.2,0.1,0.4,0.1,0.6,0.1c0.2,0,0.4,0,0.6-0.1c0.2-0.1,0.3-0.2,0.4-0.3c0.1-0.1,0.2-0.3,0.2-0.5
	c0-0.2,0-0.3-0.1-0.4c-0.1-0.1-0.2-0.2-0.4-0.3c-0.2-0.1-0.3-0.1-0.5-0.2L64.5,42c-0.4-0.1-0.7-0.3-1-0.5c-0.2-0.2-0.4-0.5-0.4-0.8
	c0-0.3,0.1-0.5,0.2-0.8c0.2-0.2,0.4-0.4,0.6-0.5c0.3-0.1,0.6-0.2,0.9-0.2c0.3,0,0.6,0.1,0.9,0.2c0.2,0.1,0.5,0.3,0.6,0.5
	c0.2,0.2,0.2,0.4,0.2,0.7L66.1,40.6z"/>
<path class="st1" d="M67.6,44.5v-5.1h3.1v0.5h-2.5v1.7h2.3v0.5h-2.3v1.7h2.5v0.6H67.6z"/>
<path class="st1" d="M71.7,44.5v-5.1h1.7c0.3,0,0.7,0.1,1,0.2c0.2,0.1,0.4,0.3,0.6,0.6c0.1,0.3,0.2,0.5,0.2,0.8
	c0,0.3-0.1,0.6-0.2,0.8c-0.1,0.2-0.3,0.4-0.6,0.5c-0.3,0.1-0.6,0.2-1,0.2H72v-0.6h1.4c0.2,0,0.4,0,0.7-0.1c0.2-0.1,0.3-0.2,0.4-0.3
	c0.1-0.2,0.1-0.3,0.1-0.5c0-0.2,0-0.4-0.1-0.5c-0.1-0.2-0.2-0.3-0.4-0.4c-0.2-0.1-0.4-0.1-0.7-0.1h-1.1v4.6L71.7,44.5z M74.1,42.2
	l1.3,2.3h-0.7l-1.2-2.3H74.1z"/>
<path class="st1" d="M76.2,39.3l1.5,4.3h0.1l1.5-4.3h0.7L78,44.5h-0.6l-1.9-5.1H76.2z"/>
<path class="st1" d="M81.2,39.3v5.1h-0.6v-5.1H81.2z"/>
<path class="st1" d="M86.4,40.9h-0.6c0-0.2-0.1-0.3-0.2-0.5c-0.1-0.1-0.2-0.2-0.3-0.3C85.2,40,85,40,84.9,39.9
	c-0.2,0-0.3-0.1-0.5-0.1c-0.3,0-0.6,0.1-0.8,0.2c-0.3,0.2-0.5,0.4-0.6,0.7c-0.3,0.7-0.3,1.5,0,2.2c0.1,0.3,0.3,0.5,0.6,0.7
	c0.3,0.2,0.5,0.2,0.8,0.2c0.2,0,0.3,0,0.5-0.1c0.2,0,0.3-0.1,0.4-0.2c0.3-0.2,0.5-0.5,0.5-0.8h0.6c0,0.2-0.1,0.5-0.3,0.7
	c-0.1,0.2-0.3,0.4-0.5,0.5c-0.2,0.1-0.4,0.3-0.6,0.3c-0.2,0.1-0.5,0.1-0.7,0.1c-0.4,0-0.8-0.1-1.2-0.3c-0.3-0.2-0.6-0.5-0.8-0.9
	c-0.4-0.9-0.4-1.9,0-2.8c0.2-0.4,0.5-0.7,0.8-0.9c0.3-0.2,0.8-0.3,1.2-0.3c0.2,0,0.5,0,0.7,0.1c0.2,0.1,0.4,0.2,0.6,0.3
	c0.2,0.1,0.3,0.3,0.5,0.5C86.3,40.4,86.4,40.7,86.4,40.9z"/>
<path class="st1" d="M87.3,44.5v-5.1h3.1v0.5h-2.5v1.7h2.3v0.5h-2.3v1.7h2.5v0.6H87.3z"/>
<path class="st1" d="M93.2,44.5v-5.1h0.6v4.6h2.4v0.6L93.2,44.5z"/>
<path class="st1" d="M97,44.5v-5.1h3.1v0.5h-2.5v1.7h2.3v0.5h-2.3v1.7h2.5v0.6H97z"/>
<path class="st1" d="M101.3,39.3l1.5,4.3h0.1l1.5-4.3h0.7l-1.9,5.1h-0.6l-1.9-5.1H101.3z"/>
<path class="st1" d="M105.7,44.5v-5.1h3.1v0.5h-2.5v1.7h2.3v0.5h-2.3v1.7h2.5v0.6H105.7z"/>
<path class="st1" d="M109.8,44.5v-5.1h0.6v4.6h2.4v0.6L109.8,44.5z"/>
<path class="st1" d="M119.8,41.9c0,0.5-0.1,1-0.3,1.4c-0.2,0.4-0.5,0.7-0.8,0.9c-0.7,0.4-1.6,0.4-2.3,0c-0.3-0.2-0.6-0.5-0.8-0.9
	c-0.4-0.9-0.4-1.9,0-2.8c0.2-0.4,0.5-0.7,0.8-0.9c0.7-0.4,1.6-0.4,2.3,0c0.3,0.2,0.6,0.5,0.8,0.9C119.7,40.9,119.8,41.4,119.8,41.9z
	 M119.2,41.9c0-0.4-0.1-0.8-0.2-1.1c-0.4-0.8-1.3-1.2-2.1-0.8c-0.1,0-0.1,0.1-0.2,0.1c-0.3,0.2-0.5,0.4-0.6,0.7
	c-0.3,0.7-0.3,1.5,0,2.2c0.4,0.8,1.3,1.2,2.1,0.8c0.4-0.2,0.6-0.4,0.8-0.8C119.1,42.7,119.2,42.3,119.2,41.9L119.2,41.9z"/>
<path class="st1" d="M120.7,44.5v-5.1h1.8c0.3,0,0.6,0.1,0.9,0.2c0.2,0.1,0.4,0.3,0.5,0.5c0.1,0.2,0.2,0.4,0.2,0.7
	c0,0.2,0,0.4-0.1,0.5c-0.1,0.1-0.2,0.3-0.3,0.3c-0.1,0.1-0.3,0.1-0.4,0.2v0c0.2,0,0.3,0.1,0.5,0.2c0.2,0.1,0.3,0.3,0.4,0.4
	c0.2,0.4,0.2,1,0,1.4c-0.1,0.2-0.3,0.4-0.6,0.5c-0.3,0.1-0.6,0.2-1,0.2L120.7,44.5z M121.3,41.6h1.1c0.2,0,0.3,0,0.5-0.1
	c0.1-0.1,0.3-0.2,0.4-0.3c0.1-0.1,0.1-0.3,0.1-0.5c0-0.2-0.1-0.4-0.2-0.6c-0.2-0.2-0.5-0.3-0.7-0.2h-1.2L121.3,41.6z M121.3,43.9
	h1.2c0.4,0,0.7-0.1,0.9-0.2c0.2-0.1,0.3-0.4,0.3-0.6c0-0.2,0-0.3-0.1-0.5c-0.1-0.2-0.2-0.3-0.4-0.4c-0.2-0.1-0.4-0.1-0.6-0.1h-1.3
	V43.9z"/>
<path class="st1" d="M127.1,39.3h0.6V43c0,0.3-0.1,0.6-0.2,0.8c-0.1,0.2-0.3,0.4-0.5,0.5c-0.2,0.1-0.5,0.2-0.8,0.2
	c-0.3,0-0.5-0.1-0.7-0.2c-0.2-0.1-0.4-0.2-0.5-0.4c-0.1-0.2-0.2-0.4-0.2-0.7h0.6c0,0.1,0,0.3,0.1,0.4c0.1,0.1,0.2,0.2,0.3,0.3
	c0.1,0.1,0.3,0.1,0.4,0.1c0.2,0,0.3,0,0.5-0.1c0.1-0.1,0.2-0.2,0.3-0.3c0.1-0.2,0.1-0.4,0.1-0.5L127.1,39.3z"/>
<path class="st1" d="M128.8,44.5v-5.1h3.1v0.5h-2.5v1.7h2.3v0.5h-2.3v1.7h2.5v0.6H128.8z"/>
<path class="st1" d="M137,40.9h-0.6c-0.1-0.3-0.2-0.6-0.5-0.8c-0.1-0.1-0.3-0.2-0.4-0.2c-0.2,0-0.3-0.1-0.5-0.1
	c-0.3,0-0.6,0.1-0.8,0.2c-0.3,0.2-0.5,0.4-0.6,0.7c-0.3,0.7-0.3,1.5,0,2.2c0.1,0.3,0.3,0.5,0.6,0.7c0.3,0.2,0.5,0.2,0.8,0.2
	c0.2,0,0.3,0,0.5-0.1c0.2,0,0.3-0.1,0.4-0.2c0.3-0.2,0.5-0.5,0.5-0.8h0.6c0,0.2-0.1,0.5-0.3,0.7c-0.1,0.2-0.3,0.4-0.5,0.5
	c-0.2,0.1-0.4,0.3-0.6,0.3c-0.2,0.1-0.5,0.1-0.7,0.1c-0.4,0-0.8-0.1-1.2-0.3c-0.3-0.2-0.6-0.5-0.8-0.9c-0.4-0.9-0.4-1.9,0-2.8
	c0.2-0.4,0.5-0.7,0.8-0.9c0.3-0.2,0.8-0.3,1.2-0.3c0.2,0,0.5,0.1,0.7,0.1c0.2,0.1,0.4,0.2,0.6,0.3c0.2,0.1,0.3,0.3,0.5,0.5
	C136.9,40.4,137,40.7,137,40.9z"/>
<path class="st1" d="M137.6,39.9v-0.5h3.8v0.5h-1.6v4.6h-0.6v-4.6H137.6z"/>
<path class="st1" d="M142.9,39.3v5.1h-0.6v-5.1H142.9z"/>
<path class="st1" d="M144.2,39.3l1.5,4.3h0.1l1.5-4.3h0.7l-1.9,5.1h-0.6l-1.9-5.1H144.2z"/>
<path class="st1" d="M148.6,44.5v-5.1h3.1v0.5h-2.5v1.7h2.3v0.5h-2.3v1.7h2.5v0.6H148.6z"/>
<path class="st1" d="M158.7,40.9h-0.6c0-0.2-0.1-0.3-0.2-0.5c-0.1-0.1-0.2-0.2-0.3-0.3c-0.1-0.1-0.3-0.2-0.4-0.2
	c-0.2,0-0.3-0.1-0.5-0.1c-0.3,0-0.6,0.1-0.8,0.2c-0.3,0.2-0.5,0.4-0.6,0.7c-0.3,0.7-0.3,1.5,0,2.2c0.1,0.3,0.3,0.5,0.6,0.7
	c0.3,0.2,0.5,0.2,0.8,0.2c0.2,0,0.3,0,0.5-0.1c0.2,0,0.3-0.1,0.4-0.2c0.1-0.1,0.2-0.2,0.3-0.3c0.1-0.1,0.2-0.3,0.2-0.5h0.6
	c0,0.2-0.1,0.5-0.3,0.7c-0.1,0.2-0.3,0.4-0.5,0.5c-0.2,0.1-0.4,0.3-0.6,0.3c-0.2,0.1-0.5,0.1-0.7,0.1c-0.4,0-0.8-0.1-1.2-0.3
	c-0.3-0.2-0.6-0.5-0.8-0.9c-0.4-0.9-0.4-1.9,0-2.8c0.2-0.4,0.5-0.7,0.8-0.9c0.3-0.2,0.8-0.3,1.2-0.3c0.2,0,0.5,0,0.7,0.1
	c0.2,0.1,0.4,0.2,0.6,0.3c0.2,0.1,0.3,0.3,0.5,0.5C158.6,40.4,158.6,40.7,158.7,40.9z"/>
<path class="st1" d="M163.9,41.9c0,0.5-0.1,1-0.3,1.4c-0.2,0.4-0.5,0.7-0.8,0.9c-0.7,0.4-1.6,0.4-2.3,0c-0.3-0.2-0.6-0.5-0.8-0.9
	c-0.4-0.9-0.4-1.9,0-2.8c0.2-0.4,0.5-0.7,0.8-0.9c0.7-0.4,1.6-0.4,2.3,0c0.3,0.2,0.6,0.5,0.8,0.9C163.8,40.9,163.9,41.4,163.9,41.9z
	 M163.3,41.9c0-0.4-0.1-0.8-0.2-1.1c-0.4-0.8-1.3-1.2-2.1-0.8c-0.1,0-0.1,0.1-0.2,0.1c-0.3,0.2-0.5,0.4-0.6,0.7
	c-0.3,0.7-0.3,1.5,0,2.2c0.4,0.8,1.3,1.2,2.1,0.8c0.4-0.2,0.6-0.4,0.8-0.8C163.2,42.7,163.3,42.3,163.3,41.9L163.3,41.9z"/>
<path class="st1" d="M168.8,39.3v5.1h-0.6l-2.8-4h-0.1v4h-0.6v-5.1h0.6l2.8,4h0v-4H168.8z"/>
<path class="st1" d="M169.9,44.5v-5.1h3.1v0.5h-2.5v1.7h2.2v0.5h-2.2v2.3L169.9,44.5z"/>
<path class="st1" d="M173.9,44.5v-5.1h3.1v0.5h-2.5v1.7h2.3v0.5h-2.3v1.7h2.5v0.6H173.9z"/>
<path class="st1" d="M178,44.5v-5.1h1.7c0.3,0,0.7,0.1,1,0.2c0.2,0.1,0.4,0.3,0.6,0.6c0.1,0.3,0.2,0.5,0.2,0.8
	c0,0.3-0.1,0.6-0.2,0.8c-0.1,0.2-0.3,0.4-0.6,0.5c-0.3,0.1-0.6,0.2-1,0.2h-1.4v-0.6h1.4c0.2,0,0.4,0,0.7-0.1
	c0.2-0.1,0.3-0.2,0.4-0.3c0.1-0.2,0.1-0.3,0.1-0.5c0-0.2,0-0.4-0.1-0.5c-0.1-0.2-0.2-0.3-0.4-0.4c-0.2-0.1-0.4-0.1-0.7-0.1h-1.1v4.6
	L178,44.5z M180.4,42.2l1.3,2.3H181l-1.2-2.3H180.4z"/>
<path class="st1" d="M182.4,44.5v-5.1h3.1v0.5H183v1.7h2.3v0.5H183v1.7h2.5v0.6H182.4z"/>
<path class="st1" d="M190.5,39.3v5.1h-0.6l-2.8-4h0v4h-0.6v-5.1h0.6l2.8,4h0.1v-4H190.5z"/>
<path class="st1" d="M195.8,40.9h-0.6c0-0.2-0.1-0.3-0.2-0.5c-0.1-0.1-0.2-0.2-0.3-0.3c-0.1-0.1-0.3-0.2-0.4-0.2
	c-0.2,0-0.3-0.1-0.5-0.1c-0.3,0-0.6,0.1-0.8,0.2c-0.3,0.2-0.5,0.4-0.6,0.7c-0.3,0.7-0.3,1.5,0,2.2c0.1,0.3,0.3,0.5,0.6,0.7
	c0.3,0.2,0.5,0.2,0.8,0.2c0.2,0,0.3,0,0.5-0.1c0.2,0,0.3-0.1,0.4-0.2c0.1-0.1,0.2-0.2,0.3-0.3c0.1-0.1,0.2-0.3,0.2-0.5h0.6
	c0,0.2-0.1,0.5-0.3,0.7c-0.1,0.2-0.3,0.4-0.5,0.5c-0.2,0.1-0.4,0.3-0.6,0.3c-0.2,0.1-0.5,0.1-0.7,0.1c-0.4,0-0.8-0.1-1.2-0.3
	c-0.3-0.2-0.6-0.5-0.8-0.9c-0.4-0.9-0.4-1.9,0-2.8c0.2-0.4,0.5-0.7,0.8-0.9c0.3-0.2,0.8-0.3,1.2-0.3c0.2,0,0.5,0,0.7,0.1
	c0.2,0.1,0.4,0.2,0.6,0.3c0.2,0.1,0.3,0.3,0.5,0.5C195.6,40.4,195.7,40.7,195.8,40.9z"/>
<path class="st1" d="M196.6,44.5v-5.1h3.1v0.5h-2.5v1.7h2.3v0.5h-2.3v1.7h2.5v0.6H196.6z"/>
<path class="st0" d="M46.2,26.6c0-0.9-0.1-1.8-0.2-2.6l0.2-0.6l4.5-6.1l-4.6-8l-7.9,0.9C36.7,9,35,8,33.1,7.2L29.9,0h-9.2l-3.2,7.2
	C15.7,8,14,9,12.5,10.2L4.6,9.3l-4.6,8l4.7,6.4c-0.3,1.8-0.3,3.7,0,5.6l-0.1,0.6L0,35.9l4.6,8l7.9-0.9c1.5,1.2,3.3,2.2,5.1,2.9
	l3.2,7.2h9.2l3.2-7.2c1.8-0.7,3.5-1.7,5.1-2.9l7.9,0.9l4.6-8L46,29.6C46.1,28.6,46.2,27.6,46.2,26.6z M8.7,14.1
	c-1.4,1.9-2.5,4-3.2,6.2l-2.4-3.3l2.9-5l6.6,0.7c0.4,0,0.8-0.1,1.1-0.3c1.6-1.3,3.3-2.3,5.2-3c0.4-0.1,0.7-0.4,0.8-0.8l2.7-6.1h5.8
	l1.6,3.6c-1.5-0.3-3.1-0.5-4.6-0.5h-1.3v2.6h1.3c2.1,0,4.3,0.4,6.3,1.1c0.1,0.1,0.2,0.1,0.3,0.2c0.9,0.3,1.8,0.7,2.6,1.2
	c0.6,0.3,1.2,0.7,1.7,1.1l1,0.8l0,0c0.3,0.2,0.6,0.2,0.9,0.2l6.6-0.7l2.9,5l-3.9,5.3l-4,2.5c-1.9-2.4-7.6-8.4-14.4-8.4
	c-7.9,0-14.2,8.1-15,9.3l-3.2,2v-1.1c0-3.9,1.3-7.8,3.6-10.9 M12.9,26.6c1.7-2,6.7-7.6,12.4-7.6s10.8,5.5,12.4,7.6
	c-1.6,2-6.4,7.5-12.4,7.5S14.5,28.7,12.9,26.6z M42.2,38.7c1.3-1.8,2.3-3.8,2.9-5.9l2.4,3.3l-2.9,5L38,40.4c-0.4,0-0.8,0.1-1.1,0.3
	c-1.6,1.3-3.3,2.3-5.2,3c-0.4,0.1-0.7,0.4-0.8,0.8l-2.7,6.1h-5.8l-1.7-3.9c1.5,0.3,2.9,0.5,4.4,0.5h1.3v-2.6h-1.3
	c-3.8,0-7.5-1.2-10.6-3.4l-1.1-0.7c-0.3-0.1-0.5-0.2-0.8-0.2L6,41.1l-2.9-5L7,30.8l4-2.5c1.9,2.5,7.3,8.4,14.4,8.4
	c7.9,0,13.7-7.4,14.9-9.1l3.3-2.1v1c0,3.8-1.2,7.5-3.4,10.6"/>
<circle class="st0" cx="25.3" cy="26.6" r="5"/>
</svg>
