<svg xmlns="http://www.w3.org/2000/svg" viewBox="0 0 505.62 158.45"><defs><style>.cls-1{fill:#fff;}</style></defs><g id="Layer_2" data-name="Layer 2"><g id="Layer_1-2" data-name="Layer 1"><path class="cls-1" d="M289.81,122.42a15.62,15.62,0,0,0-9.8-6.83,13.89,13.89,0,0,0,7.37-6.77,22.3,22.3,0,0,0,2.7-10.77q0-9.89-6.57-15.6t-18.22-5.71h-35.6v80.07h37.72q12,0,18.91-6.07t6.94-16.19a21.76,21.76,0,0,0-3.45-12.13M247.6,109.35V93h14.93q5.19,0,7.79,2a6.86,6.86,0,0,1,2.6,5.77,7.81,7.81,0,0,1-2.71,6.3q-2.7,2.3-7.68,2.29ZM273,138q-2.64,2.29-7.94,2.29H247.6V124.54h17.79c3.32,0,5.87.63,7.63,1.89a6.34,6.34,0,0,1,2.65,5.53A7.65,7.65,0,0,1,273,138m118.05,18.78V139.26H355.48V76.74H337.57v80.07ZM147.32,75.09a41.68,41.68,0,1,1-41.68,41.68,41.68,41.68,0,0,1,41.68-41.68m0,64.8a23.12,23.12,0,1,0-23.12-23.12,23.12,23.12,0,0,0,23.12,23.12m-81,16.92V76.74H48.42v45.09L13.67,76.74H0v80.07H17.9V112.89l34.54,43.92Z"/><path class="cls-1" d="M503.72,4.92a2.53,2.53,0,1,0-2.52,2.53,2.52,2.52,0,0,0,2.52-2.53"/><path class="cls-1" d="M434.53,38.68a5.9,5.9,0,1,0-5.9,5.89,5.9,5.9,0,0,0,5.9-5.89"/><path class="cls-1" d="M471.05,38.68a4.51,4.51,0,1,0-4.5,4.5,4.5,4.5,0,0,0,4.5-4.5"/><path class="cls-1" d="M470,4.42a3.44,3.44,0,1,0-3.44,3.45A3.44,3.44,0,0,0,470,4.42"/><path class="cls-1" d="M505,38.68a3.81,3.81,0,1,0-3.8,3.8,3.81,3.81,0,0,0,3.8-3.8"/><path class="cls-1" d="M466.55,82.39a5.78,5.78,0,1,0-5.78-5.78,5.78,5.78,0,0,0,5.78,5.78"/><path class="cls-1" d="M501.2,81a4.43,4.43,0,1,0-4.43-4.42A4.42,4.42,0,0,0,501.2,81"/><path class="cls-1" d="M428.63,8.85a4.43,4.43,0,1,0-4.42-4.43,4.42,4.42,0,0,0,4.42,4.43"/><path class="cls-1" d="M433.66,77.34a6.44,6.44,0,1,1-6.44-6.44A6.44,6.44,0,0,1,433.66,77.34ZM427.54,58a19.74,19.74,0,0,0-4.74,38.91l4.91-8-.49,0A11.6,11.6,0,1,1,437.33,83h0l-8.85,14.46A19.74,19.74,0,0,0,427.54,58Z"/></g></g></svg>